# xmcd CD database file
#
# Track frame offsets:
#	150
#	18762
#	38900
#
# Disc length: 765 seconds
#
# Revision: 1
# Processed by: cddbd v1.5.1PL0 Copyright (c) Steve Scherf et al.
# Submitted via: CDex 1.51
#
DISCID=1702fb03
DTITLE=Rie Tanaka - Raison d'etre
DYEAR=2002
DGENRE=Anime
TTITLE0=Raison d'etre
TTITLE1=Hitomi no Tonnel
TTITLE2=Raison d'etre (instrumental)
EXTD=YEAR: 2002
EXTT0=
EXTT1=
EXTT2=
PLAYORDER=
